<svg xmlns="http://www.w3.org/2000/svg" viewBox="0 0 31 31"><path d="M1 1h7v7h-7zM9 1h1v2h-1zM11 1h3v1h-1v1h-2zM15 1h1v1h-1zM18 1h1v2h-1v1h2v1h1v-1h-1v-1h1v-1h1v4h-1v1h-1v-1h-2v-1h-1v1h-1v-3h1v-1h1zM20 1h1v1h-1zM23 1h7v7h-7zM2 2v5h5v-5zM14 2h1v5h-1v1h-1v-1h-1v1h-1v-1h-1v-2h1v1h1v-1h1v-2h1zM24 2v5h5v-5zM3 3h3v3h-3zM10 3h1v1h-1zM25 3h3v3h-3zM9 4h1v1h-1zM11 4h1v1h-1zM9 7h1v2h-1zM15 7h1v2h-1zM17 7h1v1h-1zM19 7h1v1h-1zM21 7h1v2h-1v1h-1v2h1v1h1v3h-1v1h-1v-2h-1v1h-1v-1h-1v-1h1v-1h1v-1h-1v1h-1v-2h2v-1h-1v-2h1v1h1v-1h1zM1 9h1v1h-1zM3 9h2v1h-2zM6 9h3v1h2v1h1v-2h2v1h-1v1h2v3h-1v-1h-2v-1h-1v1h1v2h-1v1h2v2h-1v-1h-2v1h-1v-2h-2v1h1v1h-2v-1h-1v1h1v1h-1v2h-1v1h-2v-1h1v-1h1v-2h-1v-1h1v-1h2v-1h-1v-1h1v-2h1v1h1v-1h1v-1h-1v-1h-1v1h-1zM23 9h1v2h-1zM26 9h1v1h-1zM28 9h2v2h-1v-1h-1zM15 10h1v1h-1zM21 10h1v1h1v1h-2zM25 10h1v1h2v1h-1v1h1v-1h2v1h-1v1h1v2h-1v-1h-1v1h-2v1h1v1h2v1h-3v-1h-1v-1h-3v-1h1v-1h1v-2h1v2h2v-1h-1v-2h-2v-1h1zM1 11h2v1h1v1h-2v1h2v1h-1v2h-1v-2h-1zM4 11h2v1h-2zM7 11h1v1h-1zM16 13h1v1h-1zM7 14v1h1v-1zM13 14h1v1h-1zM14 15h2v1h1v1h-1v1h1v3h-2v-1h1v-1h-1v-1h-1v-1h1v-1h-1zM28 16h1v1h-1zM21 17h1v1h1v2h1v1h2v5h1v-1h3v3h-1v-2h-1v1h-3v-1h-4v-1h-2v-1h1v-3h1v-1h1v-1h-1zM29 17h1v1h-1zM8 18h1v1h-1zM10 18h2v2h2v3h1v-1h1v2h-1v1h-1v-1h-2v-1h1v-2h-1v1h-2v1h1v2h-2v-3h-2v-1h4v-1h-2v-1h1zM13 18h1v1h-1zM19 18h1v2h-1v2h-1v-3h1zM1 19h1v1h-1zM6 19h2v1h-2zM24 19h2v1h-2zM27 20h1v2h-1zM5 21h1v1h-1zM29 21h1v2h-1zM22 22v3h3v-3zM1 23h7v7h-7zM18 23h1v1h-1zM23 23h1v1h-1zM2 24v5h5v-5zM16 24h2v1h-1v1h-1zM3 25h3v3h-3zM12 25h2v1h2v1h-2v1h-2v-1h1v-1h-1zM18 25h1v3h-1v-1h-1v-1h1zM9 26h1v2h-1zM11 26h1v1h-1zM20 26h1v1h-1zM22 27h1v2h1v1h-3v-1h-2v-1h3zM14 28h1v2h-3v-1h2zM24 28h3v1h-3zM28 28h1v2h-2v-1h1zM9 29h1v1h-1zM17 29h1v1h-1z"/></svg>